<svg width="41" height="41" viewBox="0 0 41 41" fill="none" xmlns="http://www.w3.org/2000/svg">
<g clip-path="url(#clip0_1402_776)">
<path d="M40.119 22.4375C39.9628 21.4219 39.5201 20.543 38.7909 19.8008C38.0617 19.0586 37.1893 18.6224 36.1737 18.4922V17.2812C36.1737 15.5885 35.6203 14.1497 34.5135 12.9648C33.4068 11.7799 32.0721 11.1875 30.5096 11.1875C28.9732 11.1875 27.6516 11.7669 26.5448 12.9258C25.438 14.0846 24.8586 15.4714 24.8065 17.0859V30.2109C24.8065 32.3203 24.1229 34.1172 22.7557 35.6016C21.3885 37.0859 19.7414 37.8281 17.8143 37.8281C15.8872 37.8281 14.2401 37.0859 12.8729 35.6016C11.5057 34.1172 10.8221 32.3203 10.8221 30.2109V29.0781C11.3169 29.0781 11.7727 28.8828 12.1893 28.4922C12.606 28.1016 12.8143 27.4115 12.8143 26.4219V24.7422C13.882 24.4818 14.8716 24.0651 15.7831 23.4922C16.6685 22.9193 17.4367 22.2357 18.0878 21.4414C18.7388 20.6471 19.2466 19.7682 19.6112 18.8047C19.9758 17.8411 20.1581 16.8385 20.1581 15.7969V14.4297H18.83L18.7909 5.75781C18.7909 4.95052 18.5305 4.24089 18.0096 3.62891C17.4888 3.01693 16.8378 2.63281 16.0565 2.47656C15.8742 1.95573 15.5422 1.57161 15.0604 1.32422C14.5787 1.07682 14.0774 1.04427 13.5565 1.22656C13.0357 1.38281 12.6516 1.70833 12.4042 2.20312C12.1568 2.69792 12.1112 3.20573 12.2675 3.72656C12.4497 4.24739 12.7818 4.63151 13.2635 4.87891C13.7453 5.1263 14.2466 5.15886 14.7675 4.97656C15.0539 4.89844 15.3078 4.76172 15.5292 4.56641C15.7505 4.37109 15.9133 4.13021 16.0175 3.84375C16.4341 3.97396 16.7792 4.21484 17.0526 4.56641C17.326 4.91797 17.4628 5.31511 17.4628 5.75781L17.5018 14.4297H16.1737V15.8359C16.1477 16.9818 15.7766 18.0169 15.0604 18.9414C14.3443 19.8659 13.4263 20.4844 12.3065 20.7969C11.7076 21.0052 11.0956 21.1094 10.4706 21.1094C9.84558 21.1094 9.2336 21.0052 8.63464 20.7969C7.54089 20.4844 6.63595 19.8659 5.9198 18.9414C5.20365 18.0169 4.83256 16.9818 4.80652 15.8359V14.4297H2.81433V5.75781C2.81433 5.31511 2.95105 4.91146 3.22449 4.54688C3.49792 4.18229 3.856 3.94792 4.29871 3.84375C4.50704 4.36458 4.86511 4.73568 5.37292 4.95703C5.88074 5.17839 6.39506 5.18489 6.91589 4.97656C7.43673 4.76823 7.80782 4.41016 8.02917 3.90234C8.25053 3.39453 8.25704 2.88021 8.04871 2.35938C7.84037 1.83854 7.4823 1.46745 6.97449 1.24609C6.46667 1.02474 5.95235 1.01823 5.43152 1.22656C5.14506 1.33073 4.90417 1.49349 4.70886 1.71484C4.51355 1.9362 4.36381 2.19011 4.25964 2.47656C3.45235 2.60677 2.78829 2.98438 2.26746 3.60938C1.74662 4.23438 1.48621 4.95052 1.48621 5.75781V14.4297H0.158081V15.7969C0.158081 16.8385 0.340373 17.8411 0.704956 18.8047C1.06954 19.7682 1.57735 20.6471 2.22839 21.4414C2.87944 22.2357 3.64766 22.9193 4.53308 23.4922C5.44454 24.0651 6.43412 24.4818 7.50183 24.7422V26.4219C7.50183 27.4115 7.71016 28.1016 8.12683 28.4922C8.5435 28.8828 8.99923 29.0781 9.49402 29.0781V30.2109C9.49402 31.4609 9.71537 32.6328 10.1581 33.7266C10.6008 34.7943 11.1932 35.7318 11.9354 36.5391C12.6776 37.3464 13.5565 37.9844 14.5721 38.4531C15.5878 38.9219 16.6685 39.1562 17.8143 39.1562C18.9602 39.1562 20.0409 38.9219 21.0565 38.4531C22.0721 37.9844 22.9576 37.3464 23.7128 36.5391C24.468 35.7318 25.0669 34.7812 25.5096 33.6875C25.9524 32.6198 26.1737 31.4609 26.1737 30.2109V17.125C26.1997 15.849 26.6359 14.7682 27.4823 13.8828C28.3287 12.9974 29.3378 12.5547 30.5096 12.5547C31.6815 12.5547 32.6906 13.0169 33.537 13.9414C34.3833 14.8659 34.8065 15.9792 34.8065 17.2812V18.4922C33.5305 18.6745 32.5083 19.2799 31.7401 20.3086C30.9719 21.3372 30.6789 22.4896 30.8612 23.7656C31.0435 25.0417 31.6555 26.0638 32.6971 26.832C33.7388 27.6003 34.8977 27.8932 36.1737 27.7109C37.4497 27.5286 38.4719 26.9232 39.2401 25.8945C40.0083 24.8659 40.3013 23.7135 40.119 22.4375ZM14.1425 3.76562C13.9602 3.76562 13.8039 3.70052 13.6737 3.57031C13.5435 3.44011 13.4784 3.28386 13.4784 3.10156C13.4784 2.91927 13.5435 2.76302 13.6737 2.63281C13.8039 2.50261 13.9602 2.4375 14.1425 2.4375C14.3247 2.4375 14.481 2.50261 14.6112 2.63281C14.7414 2.76302 14.8065 2.91927 14.8065 3.10156C14.8065 3.28386 14.7414 3.44011 14.6112 3.57031C14.481 3.70052 14.3247 3.76562 14.1425 3.76562ZM6.17371 2.4375C6.356 2.4375 6.51225 2.50261 6.64246 2.63281C6.77266 2.76302 6.83777 2.91927 6.83777 3.10156C6.83777 3.28386 6.77266 3.44011 6.64246 3.57031C6.51225 3.70052 6.356 3.76562 6.17371 3.76562C5.99141 3.76562 5.83516 3.70052 5.70496 3.57031C5.57475 3.44011 5.50964 3.28386 5.50964 3.10156C5.50964 2.91927 5.57475 2.76302 5.70496 2.63281C5.83516 2.50261 5.99141 2.4375 6.17371 2.4375ZM1.48621 15.7969V15.7578H3.47839V15.8359C3.50444 17.2943 3.96016 18.5964 4.84558 19.7422C5.731 20.888 6.86381 21.6693 8.24402 22.0859C8.97319 22.3203 9.72188 22.4375 10.4901 22.4375C11.2583 22.4375 12.007 22.3203 12.7362 22.0859C14.1164 21.6693 15.2492 20.888 16.1346 19.7422C17.0201 18.5964 17.4758 17.2943 17.5018 15.8359V15.7578H18.83V15.7969C18.83 17.6719 18.1854 19.3385 16.8964 20.7969C15.6073 22.2552 13.9862 23.1797 12.0331 23.5703C11.5643 23.6745 11.0956 23.7331 10.6268 23.7461C10.1581 23.7591 9.68933 23.7526 9.22058 23.7266C9.06433 23.7005 8.90808 23.6745 8.75183 23.6484C8.59558 23.6224 8.43933 23.5964 8.28308 23.5703C6.32996 23.1797 4.70886 22.2552 3.4198 20.7969C2.13074 19.3385 1.48621 17.6719 1.48621 15.7969ZM9.49402 27.75C9.18152 27.75 8.99272 27.5807 8.92761 27.2422C8.86251 26.9036 8.82996 26.6302 8.82996 26.4219V25.0156C8.856 25.0156 8.88204 25.0156 8.90808 25.0156C8.93412 25.0156 8.96016 25.0156 8.98621 25.0156C9.01225 25.0156 9.0448 25.0221 9.08386 25.0352C9.12292 25.0482 9.15548 25.0547 9.18152 25.0547C9.33777 25.0547 9.49402 25.0612 9.65027 25.0742C9.80652 25.0872 9.97579 25.0938 10.1581 25.0938C10.3404 25.0938 10.5096 25.0872 10.6659 25.0742C10.8221 25.0612 10.9784 25.0547 11.1346 25.0547C11.1607 25.0547 11.1932 25.0482 11.2323 25.0352C11.2714 25.0221 11.3039 25.0156 11.33 25.0156C11.356 25.0156 11.382 25.0156 11.4081 25.0156C11.4341 25.0156 11.4602 25.0156 11.4862 25.0156V26.4219C11.4862 26.6302 11.4537 26.9036 11.3885 27.2422C11.3234 27.5807 11.1346 27.75 10.8221 27.75H9.49402ZM35.5096 26.4219C34.5721 26.4219 33.7779 26.0964 33.1268 25.4453C32.4758 24.7943 32.1503 24.013 32.1503 23.1016C32.1503 22.1641 32.4758 21.3698 33.1268 20.7188C33.7779 20.0677 34.5721 19.7422 35.5096 19.7422C36.4211 19.7422 37.2024 20.0677 37.8534 20.7188C38.5044 21.3698 38.83 22.1641 38.83 23.1016C38.83 24.013 38.5044 24.7943 37.8534 25.4453C37.2024 26.0964 36.4211 26.4219 35.5096 26.4219ZM35.5096 21.1094C34.9367 21.1094 34.455 21.3047 34.0643 21.6953C33.6737 22.0859 33.4784 22.5547 33.4784 23.1016C33.4784 23.6484 33.6737 24.1172 34.0643 24.5078C34.455 24.8984 34.9367 25.0938 35.5096 25.0938C36.0565 25.0938 36.5253 24.8984 36.9159 24.5078C37.3065 24.1172 37.5018 23.6484 37.5018 23.1016C37.5018 22.5547 37.3065 22.0859 36.9159 21.6953C36.5253 21.3047 36.0565 21.1094 35.5096 21.1094ZM35.5096 23.7656C35.3013 23.7656 35.132 23.7005 35.0018 23.5703C34.8716 23.4401 34.8065 23.2839 34.8065 23.1016C34.8065 22.9193 34.8716 22.763 35.0018 22.6328C35.132 22.5026 35.3013 22.4375 35.5096 22.4375C35.6919 22.4375 35.8482 22.5026 35.9784 22.6328C36.1086 22.763 36.1737 22.9193 36.1737 23.1016C36.1737 23.2839 36.1086 23.4401 35.9784 23.5703C35.8482 23.7005 35.6919 23.7656 35.5096 23.7656Z" fill="white"/>
</g>
<defs>
<clipPath id="clip0_1402_776">
<rect width="40" height="40" fill="white" transform="matrix(1 0 0 -1 0.158081 40.1328)"/>
</clipPath>
</defs>
</svg>
