<svg width="41" height="41" viewBox="0 0 41 41" fill="none" xmlns="http://www.w3.org/2000/svg">
<g clip-path="url(#clip0_1402_784)">
<path d="M6.19122 13.2578L5.99591 13.5703C5.99591 13.5964 5.9894 13.6159 5.97638 13.6289C5.96336 13.6419 5.95685 13.6484 5.95685 13.6484C5.90476 13.7526 5.85919 13.8438 5.82013 13.9219C5.78107 14 5.73549 14.0911 5.68341 14.1953C5.63133 14.2474 5.59226 14.3125 5.56622 14.3906C5.54018 14.4688 5.51414 14.5469 5.4881 14.625C5.35789 14.8854 5.22768 15.1589 5.09747 15.4453C5.07143 15.5495 5.03888 15.6471 4.99982 15.7383C4.96075 15.8294 4.9282 15.9141 4.90216 15.9922C4.87612 16.0964 4.85008 16.1875 4.82404 16.2656C4.79799 16.3438 4.77195 16.4349 4.74591 16.5391C4.71987 16.6432 4.69383 16.7474 4.66779 16.8516C4.64174 16.9557 4.6157 17.0599 4.58966 17.1641C4.56362 17.2422 4.54409 17.3203 4.53107 17.3984C4.51805 17.4766 4.49851 17.5417 4.47247 17.5938C4.44643 17.776 4.42039 17.9518 4.39435 18.1211C4.36831 18.2904 4.34226 18.4661 4.31622 18.6484C4.31622 18.7526 4.31622 18.8568 4.31622 18.9609C4.29018 19.1693 4.27065 19.3711 4.25763 19.5664C4.24461 19.7617 4.2381 19.9505 4.2381 20.1328C4.2381 20.3151 4.24461 20.5039 4.25763 20.6992C4.27065 20.8945 4.29018 21.0964 4.31622 21.3047C4.31622 21.3568 4.31622 21.4023 4.31622 21.4414C4.31622 21.4805 4.31622 21.526 4.31622 21.5781C4.34226 21.7344 4.36831 21.8841 4.39435 22.0273C4.42039 22.1706 4.44643 22.3203 4.47247 22.4766C4.47247 22.5547 4.48549 22.6393 4.51154 22.7305C4.53758 22.8216 4.5506 22.9062 4.5506 22.9844L4.62872 23.375H4.66779C4.90216 24.3385 5.23419 25.237 5.66388 26.0703C6.09357 26.9036 6.59487 27.6849 7.16779 28.4141V28.375L7.24591 28.4922L7.48029 28.7656C7.50633 28.7917 7.53237 28.8177 7.55841 28.8438C7.58445 28.8698 7.61049 28.8958 7.63654 28.9219C7.7407 29.0521 7.85138 29.1758 7.96857 29.293C8.08575 29.4102 8.20945 29.5208 8.33966 29.625C8.3657 29.6771 8.40476 29.7227 8.45685 29.7617C8.50893 29.8008 8.56102 29.8333 8.6131 29.8594C8.71727 29.9635 8.82794 30.0677 8.94513 30.1719C9.06232 30.276 9.18602 30.3802 9.31622 30.4844C9.36831 30.5104 9.42039 30.543 9.47247 30.582C9.52456 30.6211 9.56362 30.6536 9.58966 30.6797C9.71987 30.7839 9.85659 30.8815 9.99982 30.9727C10.143 31.0638 10.2798 31.1615 10.41 31.2656C10.4621 31.2917 10.5076 31.3112 10.5467 31.3242C10.5858 31.3372 10.6183 31.3568 10.6443 31.3828C10.9568 31.5651 11.2824 31.7474 11.6209 31.9297C11.647 31.9297 11.6665 31.9362 11.6795 31.9492C11.6925 31.9622 11.699 31.9688 11.699 31.9688L12.1287 32.1641C12.91 32.5026 13.7433 32.7695 14.6287 32.9648C15.5141 33.1602 16.4256 33.2578 17.3631 33.2578C18.8475 33.2578 20.2667 33.0234 21.6209 32.5547C22.949 32.0859 24.16 31.4414 25.2537 30.6211C26.3475 29.8008 27.298 28.8177 28.1053 27.6719C28.9126 26.526 29.5115 25.276 29.9022 23.9219L29.9412 23.8438L29.9803 23.7656C29.9803 23.7135 29.9868 23.6549 29.9998 23.5898C30.0128 23.5247 30.0324 23.4531 30.0584 23.375C30.1105 23.2188 30.1561 23.056 30.1951 22.8867C30.2342 22.7174 30.2667 22.5417 30.2928 22.3594C30.2928 22.2552 30.3058 22.151 30.3318 22.0469C30.3579 21.9427 30.3709 21.8255 30.3709 21.6953C30.397 21.6432 30.41 21.5781 30.41 21.5C30.41 21.4219 30.423 21.3438 30.449 21.2656C30.449 21.0833 30.4555 20.8945 30.4686 20.6992C30.4816 20.5039 30.4881 20.3151 30.4881 20.1328C30.4881 19.9245 30.4816 19.7161 30.4686 19.5078C30.4555 19.2995 30.436 19.0911 30.41 18.8828C30.41 18.7786 30.4035 18.681 30.3904 18.5898C30.3774 18.4987 30.3579 18.4141 30.3318 18.3359C30.3318 18.2057 30.3253 18.0885 30.3123 17.9844C30.2993 17.8802 30.2798 17.776 30.2537 17.6719C30.2277 17.5417 30.2016 17.4245 30.1756 17.3203C30.1496 17.2161 30.1235 17.099 30.0975 16.9688C30.0714 16.8906 30.0454 16.8125 30.0193 16.7344C29.9933 16.6562 29.9803 16.5781 29.9803 16.5C29.9282 16.3698 29.8826 16.2396 29.8436 16.1094C29.8045 15.9792 29.7589 15.862 29.7068 15.7578C29.6808 15.6797 29.6613 15.6081 29.6483 15.543C29.6352 15.4779 29.6157 15.4062 29.5897 15.3281C29.5376 15.224 29.4855 15.1068 29.4334 14.9766C29.3813 14.8464 29.3162 14.7161 29.2381 14.5859C29.2121 14.5339 29.186 14.4818 29.16 14.4297C29.1339 14.3776 29.1079 14.3125 29.0818 14.2344C28.9516 14 28.8214 13.7526 28.6912 13.4922C28.6652 13.4401 28.6326 13.3945 28.5936 13.3555C28.5545 13.3164 28.522 13.2708 28.4959 13.2188C28.4178 13.0885 28.3397 12.9648 28.2615 12.8477C28.1834 12.7305 28.1053 12.6068 28.0272 12.4766C27.9751 12.4505 27.936 12.4115 27.91 12.3594C27.8839 12.3073 27.8449 12.2552 27.7928 12.2031C27.7147 12.099 27.63 11.9883 27.5389 11.8711C27.4477 11.7539 27.3501 11.6432 27.2459 11.5391C27.2459 11.513 27.2394 11.4935 27.2264 11.4805C27.2134 11.4674 27.1938 11.4479 27.1678 11.4219L26.9334 11.1484C25.7355 9.8724 24.3097 8.86328 22.6561 8.12109C21.0024 7.37891 19.2381 7.00781 17.3631 7.00781C16.1912 7.00781 15.0584 7.15104 13.9647 7.4375C12.8709 7.75 11.8488 8.17318 10.8983 8.70703C9.94773 9.24088 9.08185 9.89844 8.3006 10.6797C7.49331 11.4349 6.8032 12.2812 6.23029 13.2188L6.19122 13.2578ZM12.9881 10.1328L14.785 10.6016L14.2772 14.1172L12.8318 14.8203L12.4022 12.125C12.3761 11.9688 12.3305 11.832 12.2654 11.7148C12.2003 11.5977 12.1287 11.5 12.0506 11.4219L11.1522 10.5234L12.9881 10.1328ZM5.52716 19.0781C5.5532 19.026 5.56622 18.9805 5.56622 18.9414C5.56622 18.9023 5.56622 18.8568 5.56622 18.8047C5.59226 18.6484 5.61831 18.4922 5.64435 18.3359C5.67039 18.1797 5.69643 18.0234 5.72247 17.8672C5.72247 17.8151 5.72898 17.7565 5.742 17.6914C5.75503 17.6263 5.77456 17.5547 5.8006 17.4766C5.82664 17.3984 5.85268 17.3073 5.87872 17.2031C5.90476 17.099 5.93081 17.0078 5.95685 16.9297C6.00893 16.6953 6.07404 16.474 6.15216 16.2656C6.1782 16.1615 6.20424 16.0703 6.23029 15.9922C6.25633 15.9141 6.29539 15.8359 6.34747 15.7578C6.37351 15.6797 6.40607 15.5951 6.44513 15.5039C6.48419 15.4128 6.51674 15.3281 6.54279 15.25C6.56883 15.1979 6.60138 15.1393 6.64044 15.0742C6.6795 15.0091 6.71206 14.9375 6.7381 14.8594C6.76414 14.8073 6.79018 14.7487 6.81622 14.6836C6.84226 14.6185 6.88133 14.5599 6.93341 14.5078H8.26154C8.26154 14.5078 8.26805 14.5078 8.28107 14.5078C8.29409 14.5078 8.3006 14.5078 8.3006 14.5078L10.2537 17.4766L8.3006 18.9609L6.30841 19.9766C6.10008 20.0807 5.93081 20.2305 5.8006 20.4258C5.67039 20.6211 5.60529 20.849 5.60529 21.1094C5.60529 21.1615 5.60529 21.2135 5.60529 21.2656C5.60529 21.3177 5.61831 21.3698 5.64435 21.4219L5.83966 22.3984L5.72247 22.3594C5.64435 21.9948 5.57924 21.6302 5.52716 21.2656C5.52716 21.0833 5.52065 20.8945 5.50763 20.6992C5.49461 20.5039 5.4881 20.3151 5.4881 20.1328C5.4881 19.9505 5.49461 19.7747 5.50763 19.6055C5.52065 19.4362 5.52716 19.2604 5.52716 19.0781ZM12.9881 29.0391C12.9881 29.1172 12.9751 29.1953 12.949 29.2734C12.923 29.3516 12.8839 29.4167 12.8318 29.4688L11.8162 30.6406C11.7121 30.5625 11.6014 30.4909 11.4842 30.4258C11.367 30.3607 11.2563 30.3021 11.1522 30.25C11.1261 30.224 11.1001 30.2044 11.074 30.1914C11.048 30.1784 11.0089 30.1589 10.9568 30.1328C10.8787 30.0547 10.7876 29.9831 10.6834 29.918C10.5792 29.8529 10.4881 29.7943 10.41 29.7422C10.3579 29.6901 10.3058 29.651 10.2537 29.625C10.2016 29.599 10.1626 29.5599 10.1365 29.5078C10.0324 29.4557 9.94122 29.3971 9.8631 29.332C9.78497 29.2669 9.70685 29.1953 9.62872 29.1172C9.57664 29.0911 9.53107 29.0521 9.492 29C9.45294 28.9479 9.40737 28.9089 9.35529 28.8828C9.27716 28.8047 9.19904 28.7266 9.12091 28.6484C9.04279 28.5703 8.96466 28.4922 8.88654 28.4141L9.78497 27.7891C9.83706 27.763 9.89565 27.7435 9.96075 27.7305C10.0259 27.7174 10.0845 27.7109 10.1365 27.7109C10.1626 27.7109 10.1821 27.7109 10.1951 27.7109C10.2081 27.7109 10.2277 27.7109 10.2537 27.7109L12.4412 28.0625C12.5975 28.0885 12.7277 28.1602 12.8318 28.2773C12.936 28.3945 12.9881 28.5312 12.9881 28.6875V29.0391ZM17.3631 32.0078C16.5818 32.0078 15.8201 31.9362 15.0779 31.793C14.3358 31.6497 13.6131 31.4349 12.91 31.1484L13.0272 31.1875L13.7693 30.2891C13.9256 30.1068 14.0428 29.9115 14.1209 29.7031C14.199 29.4948 14.2381 29.2734 14.2381 29.0391V28.6875C14.2381 28.2188 14.0884 27.8151 13.7889 27.4766C13.4894 27.138 13.1183 26.9297 12.6756 26.8516L10.449 26.4609C10.397 26.4609 10.3449 26.4609 10.2928 26.4609C10.2407 26.4609 10.1886 26.4609 10.1365 26.4609C9.95424 26.4609 9.77195 26.487 9.58966 26.5391C9.40737 26.5911 9.2381 26.6693 9.08185 26.7734H9.12091L8.02716 27.4766C7.61049 26.9297 7.23289 26.3372 6.89435 25.6992C6.55581 25.0612 6.26935 24.4036 6.03497 23.7266L5.99591 23.6484C6.33445 23.5964 6.60789 23.4531 6.81622 23.2188C7.02456 22.9844 7.12872 22.7109 7.12872 22.3984C7.12872 22.3203 7.12221 22.2552 7.10919 22.2031C7.09617 22.151 7.08966 22.099 7.08966 22.0469V22.0859L6.85529 21.0703L8.84747 20.0938C8.87352 20.0677 8.90607 20.0482 8.94513 20.0352C8.98419 20.0221 9.01674 20.0026 9.04279 19.9766L10.9959 18.4922C11.1522 18.388 11.2759 18.2448 11.367 18.0625C11.4581 17.8802 11.5037 17.6849 11.5037 17.4766C11.5037 17.3464 11.4842 17.2227 11.4451 17.1055C11.4061 16.9883 11.3605 16.8776 11.3084 16.7734L9.31622 13.8047C9.21206 13.6484 9.06883 13.5182 8.88654 13.4141C8.70424 13.3099 8.49591 13.2578 8.26154 13.2578H7.71466C8.02716 12.8151 8.37221 12.3919 8.74982 11.9883C9.12742 11.5846 9.52456 11.2135 9.94122 10.875C9.96727 10.9792 10.0063 11.0768 10.0584 11.168C10.1105 11.2591 10.1756 11.3438 10.2537 11.4219L11.1522 12.3203L11.6209 15.0156C11.647 15.224 11.7186 15.4062 11.8358 15.5625C11.9529 15.7188 12.1027 15.8359 12.285 15.9141C12.3631 15.9661 12.4477 16.0052 12.5389 16.0312C12.63 16.0573 12.7277 16.0703 12.8318 16.0703C12.936 16.0703 13.0402 16.0573 13.1443 16.0312C13.2485 16.0052 13.3397 15.9661 13.4178 15.9141L14.824 15.2109C15.0324 15.1328 15.1951 15.0091 15.3123 14.8398C15.4295 14.6706 15.5011 14.4818 15.5272 14.2734L16.035 10.7969C16.035 10.7708 16.035 10.7383 16.035 10.6992C16.035 10.6602 16.035 10.6276 16.035 10.6016C16.035 10.3151 15.9438 10.0612 15.7615 9.83984C15.5792 9.61849 15.3579 9.46875 15.0975 9.39062L13.3787 8.96094C13.9777 8.72656 14.6157 8.55078 15.2928 8.43359C15.9699 8.31641 16.66 8.25781 17.3631 8.25781C18.6652 8.25781 19.9087 8.45963 21.0936 8.86328C22.2785 9.26693 23.3527 9.82031 24.3162 10.5234L24.2772 10.4844C24.2511 10.5104 24.2316 10.5234 24.2186 10.5234C24.2055 10.5234 24.186 10.5234 24.16 10.5234C23.9777 10.5755 23.8149 10.6667 23.6717 10.7969C23.5285 10.9271 23.4308 11.0833 23.3787 11.2656L22.4803 13.4141L20.449 14.4688L19.199 14.0391C19.1209 14.013 19.0493 13.9935 18.9842 13.9805C18.9191 13.9674 18.8475 13.9609 18.7693 13.9609C18.6131 13.9609 18.4568 13.9935 18.3006 14.0586C18.1443 14.1237 18.0011 14.2214 17.8709 14.3516L15.8006 16.4609C15.7225 16.5391 15.6509 16.6237 15.5858 16.7148C15.5206 16.806 15.4751 16.9036 15.449 17.0078V17.0469L14.9022 19.3125L13.8084 22.0078C13.7824 22.0859 13.7628 22.1641 13.7498 22.2422C13.7368 22.3203 13.7303 22.3984 13.7303 22.4766C13.7303 22.6589 13.7628 22.8216 13.8279 22.9648C13.893 23.1081 13.9777 23.2448 14.0818 23.375L15.2147 24.5078C15.3449 24.612 15.4881 24.6966 15.6443 24.7617C15.8006 24.8268 15.9568 24.8594 16.1131 24.8594C16.2954 24.8594 16.4647 24.8268 16.6209 24.7617C16.7772 24.6966 16.9204 24.612 17.0506 24.5078L17.3631 25.875L17.7928 27.9844C17.8449 28.2708 17.9881 28.5117 18.2225 28.707C18.4568 28.9023 18.7303 29 19.0428 29C19.199 29 19.3423 28.974 19.4725 28.9219C19.6027 28.8698 19.7199 28.8047 19.824 28.7266L21.9334 27.0078C22.0636 26.9297 22.1678 26.8255 22.2459 26.6953C22.324 26.5651 22.3761 26.4219 22.4022 26.2656L22.949 23.4922L23.7303 22.3594L25.0584 23.6875C25.1626 23.8177 25.2928 23.9154 25.449 23.9805C25.6053 24.0456 25.7746 24.0781 25.9568 24.0781C26.1912 24.0781 26.4061 24.013 26.6014 23.8828C26.7967 23.7526 26.9464 23.5833 27.0506 23.375L27.324 22.9453L27.6365 23.7266C27.6886 23.9089 27.7863 24.0586 27.9295 24.1758C28.0727 24.293 28.2355 24.3776 28.4178 24.4297C27.9751 25.5495 27.3891 26.5781 26.66 27.5156C25.9048 28.4271 25.0519 29.2214 24.1014 29.8984C23.1509 30.5755 22.1027 31.0964 20.9568 31.4609C19.811 31.8255 18.6131 32.0078 17.3631 32.0078ZM27.6756 14.2734C27.7537 14.4036 27.8188 14.5273 27.8709 14.6445C27.923 14.7617 27.9751 14.8724 28.0272 14.9766C28.0532 15.0286 28.0792 15.0742 28.1053 15.1133C28.1313 15.1523 28.1574 15.1979 28.1834 15.25C28.2355 15.3542 28.2811 15.4648 28.3201 15.582C28.3592 15.6992 28.4048 15.8099 28.4568 15.9141C28.4829 15.9661 28.5024 16.0247 28.5154 16.0898C28.5285 16.1549 28.548 16.2135 28.574 16.2656C28.6522 16.474 28.7173 16.6823 28.7693 16.8906C28.7954 16.9688 28.8214 17.0469 28.8475 17.125C28.8735 17.2031 28.8865 17.2812 28.8865 17.3594C28.9126 17.4635 28.9386 17.5612 28.9647 17.6523C28.9907 17.7435 29.0167 17.8411 29.0428 17.9453C29.0428 18.0495 29.0493 18.1536 29.0623 18.2578C29.0753 18.362 29.0949 18.4661 29.1209 18.5703C29.1209 18.6484 29.1274 18.7201 29.1404 18.7852C29.1535 18.8503 29.173 18.9219 29.199 19C29.199 19.1823 29.2055 19.3711 29.2186 19.5664C29.2316 19.7617 29.2381 19.9505 29.2381 20.1328C29.2381 20.3151 29.2316 20.4909 29.2186 20.6602C29.2055 20.8294 29.199 20.9922 29.199 21.1484C29.173 21.2266 29.16 21.2917 29.16 21.3438C29.16 21.3958 29.16 21.4609 29.16 21.5391C29.1339 21.6432 29.1144 21.7539 29.1014 21.8711C29.0884 21.9883 29.0688 22.099 29.0428 22.2031C28.9907 22.4635 28.9386 22.7109 28.8865 22.9453C28.8865 22.9974 28.88 23.043 28.867 23.082C28.854 23.1211 28.8345 23.1667 28.8084 23.2188L28.7693 23.2578L28.4568 22.4766C28.3787 22.2422 28.2355 22.0534 28.0272 21.9102C27.8188 21.7669 27.5714 21.6953 27.285 21.6953C27.0506 21.6953 26.8358 21.7539 26.6404 21.8711C26.4451 21.9883 26.2954 22.151 26.1912 22.3594H26.1522L25.9178 22.8281L24.5897 21.5C24.4855 21.3698 24.3553 21.2721 24.199 21.207C24.0428 21.1419 23.8865 21.1094 23.7303 21.1094C23.4959 21.1094 23.2876 21.1615 23.1053 21.2656C22.923 21.3698 22.7798 21.513 22.6756 21.6953L21.8943 22.7891C21.8683 22.8672 21.8358 22.9453 21.7967 23.0234C21.7576 23.1016 21.7381 23.1797 21.7381 23.2578L21.1522 26.0312L19.0037 27.7109L18.6131 25.6016L18.2615 24.1953C18.1834 23.987 18.0662 23.7982 17.91 23.6289C17.7537 23.4596 17.5714 23.349 17.3631 23.2969C17.311 23.2708 17.2524 23.2578 17.1873 23.2578C17.1222 23.2578 17.0636 23.2578 17.0115 23.2578C16.8292 23.2578 16.66 23.2904 16.5037 23.3555C16.3475 23.4206 16.2173 23.5052 16.1131 23.6094L14.9803 22.4766L16.074 19.7812C16.074 19.7552 16.074 19.7292 16.074 19.7031C16.074 19.6771 16.0871 19.651 16.1131 19.625L16.699 17.3203L18.8084 15.2109L20.0584 15.6406C20.1105 15.6667 20.1691 15.6862 20.2342 15.6992C20.2993 15.7122 20.3709 15.7188 20.449 15.7188C20.5532 15.7188 20.6509 15.7057 20.742 15.6797C20.8332 15.6536 20.9178 15.6146 20.9959 15.5625L23.0662 14.5469C23.1964 14.4688 23.3136 14.3776 23.4178 14.2734C23.522 14.1693 23.6001 14.0391 23.6522 13.8828L24.5506 11.6953L25.5272 12.3594C25.6313 12.4375 25.742 12.4961 25.8592 12.5352C25.9764 12.5742 26.1001 12.5938 26.2303 12.5938C26.2824 12.5938 26.3279 12.5872 26.367 12.5742C26.4061 12.5612 26.4516 12.5547 26.5037 12.5547C26.686 12.7891 26.8683 13.0365 27.0506 13.2969C27.2329 13.5573 27.4022 13.8177 27.5584 14.0781L27.5975 14.1562C27.6235 14.1562 27.643 14.1693 27.6561 14.1953C27.6691 14.2214 27.6756 14.2474 27.6756 14.2734ZM19.5897 1.89062L17.3631 3.88281L19.3553 6.10938L21.1522 6.1875L19.824 4.70312C21.699 5.01562 23.4438 5.62761 25.0584 6.53906C26.647 7.45052 28.0337 8.58984 29.2186 9.95703C30.4035 11.3242 31.3214 12.8802 31.9725 14.625C32.6496 16.3698 32.9881 18.2057 32.9881 20.1328C32.9881 22.138 32.6365 24.026 31.9334 25.7969C31.2303 27.5677 30.2602 29.1432 29.0233 30.5234C27.7863 31.9036 26.3345 33.0495 24.6678 33.9609C22.9751 34.8464 21.1652 35.4062 19.2381 35.6406H19.16L19.3162 36.8906C21.4256 36.6302 23.3917 36.0182 25.2147 35.0547C27.0376 34.0911 28.6131 32.8607 29.9412 31.3633C31.2693 29.8659 32.324 28.1667 33.1053 26.2656C33.8605 24.3385 34.2381 22.2943 34.2381 20.1328C34.2381 18.0234 33.8735 16.0182 33.1443 14.1172C32.4152 12.2161 31.4061 10.5299 30.117 9.05859C28.8279 7.58724 27.298 6.35677 25.5272 5.36719C23.7824 4.37761 21.8943 3.73958 19.8631 3.45312L19.7459 3.41406L21.3865 1.96875L19.5897 1.89062ZM0.488098 20.1328C0.488098 22.2422 0.865702 24.2474 1.62091 26.1484C2.35008 28.0234 3.35919 29.7031 4.64825 31.1875C5.93732 32.6719 7.45424 33.8958 9.19904 34.8594C10.9438 35.849 12.8318 36.5 14.8631 36.8125L14.9803 36.8516L13.3397 38.2969L15.1365 38.375L17.3631 36.3828L15.3709 34.1562L13.574 34.0781L14.9022 35.5625C13.0272 35.25 11.2824 34.638 9.66779 33.7266C8.07924 32.8151 6.69253 31.6758 5.50763 30.3086C4.32273 28.9414 3.40476 27.3854 2.75372 25.6406C2.07664 23.8958 1.7381 22.0599 1.7381 20.1328C1.7381 18.1276 2.08966 16.2396 2.79279 14.4688C3.49591 12.6979 4.46596 11.1224 5.70294 9.74219C6.93992 8.36198 8.39174 7.21615 10.0584 6.30469C11.7511 5.41927 13.561 4.85938 15.4881 4.625H15.5662L15.41 3.375C13.3006 3.60938 11.3345 4.22136 9.51154 5.21094C7.68862 6.17448 6.1131 7.39844 4.78497 8.88281C3.45685 10.3672 2.40216 12.0729 1.62091 14C0.865702 15.9271 0.488098 17.9714 0.488098 20.1328Z" fill="white"/>
</g>
<defs>
<clipPath id="clip0_1402_784">
<rect width="40" height="40" fill="white" transform="matrix(1 0 0 -1 0.488098 40.1328)"/>
</clipPath>
</defs>
</svg>
