<svg width="41" height="41" viewBox="0 0 41 41" fill="none" xmlns="http://www.w3.org/2000/svg">
<g clip-path="url(#clip0_1402_768)">
<path d="M36.2535 38.1016L34.4957 27.7109C34.3915 27.1641 34.1571 26.6823 33.7925 26.2656C33.428 25.849 32.9722 25.5495 32.4253 25.3672L27.6597 23.9609C27.6076 23.362 27.4644 22.7956 27.23 22.2617C26.9957 21.7279 26.6832 21.2396 26.2925 20.7969C25.98 20.4583 25.622 20.1654 25.2183 19.918C24.8147 19.6706 24.3915 19.4688 23.9488 19.3125C24.0269 19.2344 24.105 19.1562 24.1832 19.0781C24.2613 19 24.3264 18.9089 24.3785 18.8047C24.9514 18.1016 25.3941 17.3789 25.7066 16.6367C26.0191 15.8945 26.2144 15.25 26.2925 14.7031H26.6441C27.1389 14.7031 27.5556 14.5339 27.8941 14.1953C28.2326 13.8568 28.4019 13.4531 28.4019 12.9844V12.0859C28.4019 11.7734 28.3173 11.4805 28.148 11.207C27.9787 10.9336 27.7639 10.7188 27.5035 10.5625V8.41406C27.5035 8.25781 27.4449 8.12109 27.3277 8.00391C27.2105 7.88672 27.0738 7.82812 26.9175 7.82812C26.7352 7.82812 26.592 7.88672 26.4878 8.00391C26.3837 8.12109 26.3316 8.25781 26.3316 8.41406V10.8359C26.2014 10.8359 26.0712 10.8555 25.941 10.8945C25.8108 10.9336 25.6806 10.9792 25.5503 11.0312C25.5243 11.0573 25.5048 11.0703 25.4918 11.0703C25.4787 11.0703 25.4722 11.0703 25.4722 11.0703C25.4201 11.0964 25.3811 11.1159 25.355 11.1289C25.329 11.1419 25.303 11.1615 25.2769 11.1875V6.46094C25.2769 5.80989 25.0425 5.25 24.5738 4.78125C24.105 4.3125 23.5451 4.07812 22.8941 4.07812H21.2925C21.0061 4.07812 20.7326 4.13021 20.4722 4.23438C20.2118 4.33854 19.9774 4.46875 19.7691 4.625L19.6128 4.78125C19.4566 4.88542 19.2873 4.97005 19.105 5.03516C18.9227 5.10026 18.7405 5.13281 18.5582 5.13281C18.3759 5.13281 18.1936 5.10026 18.0113 5.03516C17.829 4.97005 17.6597 4.88542 17.5035 4.78125L17.3472 4.625C17.1389 4.46875 16.9045 4.33854 16.6441 4.23438C16.3837 4.13021 16.1102 4.07812 15.8238 4.07812H14.2222C13.5712 4.07812 13.0113 4.3125 12.5425 4.78125C12.0738 5.25 11.8394 5.80989 11.8394 6.46094V11.1875C11.8134 11.1615 11.7873 11.1419 11.7613 11.1289C11.7352 11.1159 11.6962 11.0964 11.6441 11.0703C11.6441 11.0703 11.6376 11.0703 11.6246 11.0703C11.6115 11.0703 11.592 11.0573 11.566 11.0312C11.4358 10.9792 11.3056 10.9336 11.1753 10.8945C11.0451 10.8555 10.9149 10.8359 10.7847 10.8359V4.74219C10.7847 3.80469 11.1233 2.99739 11.8003 2.32031C12.4774 1.64323 13.2847 1.30469 14.2222 1.30469H22.8941C23.8316 1.30469 24.6389 1.64323 25.316 2.32031C25.9931 2.99739 26.3316 3.80469 26.3316 4.74219V5.67969C26.3316 5.83594 26.3837 5.97266 26.4878 6.08984C26.592 6.20703 26.7352 6.26562 26.9175 6.26562C27.0738 6.26562 27.2105 6.20703 27.3277 6.08984C27.4449 5.97266 27.5035 5.83594 27.5035 5.67969V4.74219C27.5035 3.46614 27.0477 2.37891 26.1363 1.48047C25.2248 0.582031 24.1441 0.132812 22.8941 0.132812H14.2222C12.9722 0.132812 11.8915 0.582031 10.98 1.48047C10.0686 2.37891 9.61285 3.46614 9.61285 4.74219V10.5625C9.35243 10.7188 9.13759 10.9336 8.96832 11.207C8.79905 11.4805 8.71441 11.7734 8.71441 12.0859V12.9844C8.71441 13.4531 8.88368 13.8568 9.22222 14.1953C9.56076 14.5339 9.97743 14.7031 10.4722 14.7031H10.8238C10.9019 15.25 11.0972 15.8945 11.4097 16.6367C11.7222 17.3789 12.1649 18.1016 12.7378 18.8047C12.7899 18.9089 12.855 19 12.9332 19.0781C13.0113 19.1562 13.0764 19.2344 13.1285 19.3125C12.1389 19.651 11.299 20.237 10.6089 21.0703C9.91884 21.9036 9.53472 22.8672 9.4566 23.9609L4.69097 25.3672C4.1441 25.5495 3.68837 25.849 3.32378 26.2656C2.9592 26.6823 2.72483 27.1641 2.62066 27.7109L1.87847 31.9297C1.85243 32.0859 1.89149 32.2292 1.99566 32.3594C2.09983 32.4896 2.23003 32.5677 2.38628 32.5938C2.54253 32.6198 2.68576 32.5872 2.81597 32.4961C2.94618 32.4049 3.02431 32.2812 3.05035 32.125L3.75347 27.9062C3.8316 27.5677 3.98134 27.2747 4.20269 27.0273C4.42405 26.7799 4.69097 26.6042 5.00347 26.5L9.41753 25.1719V26.3438C8.92274 26.4219 8.47352 26.6237 8.06988 26.9492C7.66623 27.2747 7.37326 27.6849 7.19097 28.1797C7.16493 28.3099 7.13238 28.4401 7.09332 28.5703C7.05425 28.7005 7.03472 28.8307 7.03472 28.9609L6.60503 34.4688C6.57899 34.651 6.60503 34.8464 6.68316 35.0547C6.76128 35.263 6.86545 35.4323 6.99566 35.5625C7.12587 35.7188 7.28863 35.8424 7.48394 35.9336C7.67925 36.0247 7.88108 36.0703 8.08941 36.0703H8.8316C8.98785 36.0703 9.12457 36.0117 9.24175 35.8945C9.35894 35.7773 9.41753 35.6406 9.41753 35.4844C9.41753 35.3021 9.35894 35.1589 9.24175 35.0547C9.12457 34.9505 8.98785 34.8984 8.8316 34.8984H8.08941C8.03733 34.8984 7.99175 34.8854 7.95269 34.8594C7.91363 34.8333 7.88108 34.8073 7.85503 34.7812C7.82899 34.7552 7.80946 34.7227 7.79644 34.6836C7.78342 34.6445 7.77691 34.599 7.77691 34.5469L8.2066 29.0781C8.2066 28.974 8.21311 28.8828 8.22613 28.8047C8.23915 28.7266 8.2717 28.6484 8.32378 28.5703C8.42795 28.2318 8.63628 27.9648 8.94878 27.7695C9.26128 27.5742 9.59983 27.4635 9.96441 27.4375H10.0425C10.0686 27.4375 10.0816 27.4375 10.0816 27.4375C10.4462 27.4375 10.7717 27.5352 11.0582 27.7305C11.3446 27.9258 11.566 28.1797 11.7222 28.4922C11.7483 28.5964 11.7743 28.694 11.8003 28.7852C11.8264 28.8763 11.8394 28.974 11.8394 29.0781L12.2691 34.5469C12.2691 34.599 12.2626 34.6445 12.2496 34.6836C12.2365 34.7227 12.217 34.7552 12.191 34.7812C12.1649 34.8073 12.1324 34.8333 12.0933 34.8594C12.0543 34.8854 12.0087 34.8984 11.9566 34.8984H11.2144C11.0582 34.8984 10.9214 34.9505 10.8043 35.0547C10.6871 35.1589 10.6285 35.3021 10.6285 35.4844C10.6285 35.6406 10.6871 35.7773 10.8043 35.8945C10.9214 36.0117 11.0582 36.0703 11.2144 36.0703H11.9566C12.1649 36.0703 12.3668 36.0247 12.5621 35.9336C12.7574 35.8424 12.9201 35.7188 13.0503 35.5625C13.1806 35.4323 13.2847 35.263 13.3628 35.0547C13.441 34.8464 13.467 34.651 13.441 34.4688L13.0113 28.9609C13.0113 28.8047 12.9918 28.6484 12.9527 28.4922C12.9136 28.3359 12.855 28.1927 12.7769 28.0625C12.5946 27.5938 12.3082 27.2096 11.9175 26.9102C11.5269 26.6107 11.0842 26.4219 10.5894 26.3438V24.8203L12.6207 24.1953C12.6988 24.4036 12.842 24.7357 13.0503 25.1914C13.2587 25.6471 13.5321 26.3307 13.8707 27.2422C14.2352 28.1536 14.6389 29.1628 15.0816 30.2695C15.5243 31.3763 15.954 32.5026 16.3707 33.6484C16.3707 33.6484 16.3707 33.6549 16.3707 33.668C16.3707 33.681 16.3837 33.6875 16.4097 33.6875C16.6962 34.4427 16.9761 35.1849 17.2496 35.9141C17.523 36.6432 17.7769 37.3203 18.0113 37.9453C18.0634 38.0495 18.135 38.1406 18.2261 38.2188C18.3173 38.2969 18.428 38.3359 18.5582 38.3359C18.6884 38.3359 18.799 38.2969 18.8902 38.2188C18.9813 38.1406 19.053 38.0495 19.105 37.9453C19.3394 37.3203 19.5933 36.6432 19.8668 35.9141C20.1402 35.1849 20.4201 34.4427 20.7066 33.6875C20.7326 33.6875 20.7457 33.681 20.7457 33.668C20.7457 33.6549 20.7457 33.6484 20.7457 33.6484C21.1623 32.5026 21.592 31.3763 22.0347 30.2695C22.4774 29.1628 22.8811 28.1536 23.2457 27.2422C23.5842 26.3307 23.8576 25.6471 24.066 25.1914C24.2743 24.7357 24.4175 24.4036 24.4957 24.1953L26.5269 24.8203V28.2969C25.8238 28.4271 25.2378 28.7656 24.7691 29.3125C24.3003 29.8594 24.066 30.5104 24.066 31.2656C24.066 32.099 24.3589 32.8086 24.9449 33.3945C25.5308 33.9805 26.2405 34.2734 27.0738 34.2734C27.9071 34.2734 28.6233 33.9805 29.2222 33.3945C29.8212 32.8086 30.1207 32.099 30.1207 31.2656C30.1207 30.5365 29.8863 29.8919 29.4175 29.332C28.9488 28.7721 28.3759 28.4271 27.6988 28.2969V25.1719L32.1128 26.5C32.4253 26.6042 32.6923 26.7799 32.9136 27.0273C33.135 27.2747 33.2847 27.5677 33.3628 27.9062L35.1207 38.2969C35.1207 38.375 35.1142 38.4531 35.1011 38.5312C35.0881 38.6094 35.0556 38.6875 35.0035 38.7656C34.9253 38.8177 34.8537 38.8633 34.7886 38.9023C34.7235 38.9414 34.6389 38.9609 34.5347 38.9609H2.5816C2.47743 38.9609 2.3928 38.9414 2.32769 38.9023C2.26259 38.8633 2.19097 38.8177 2.11285 38.7656C2.06076 38.6875 2.02821 38.6094 2.01519 38.5312C2.00217 38.4531 1.99566 38.375 1.99566 38.2969L2.5816 34.8594C2.60764 34.7031 2.57509 34.5599 2.48394 34.4297C2.3928 34.2995 2.2691 34.2214 2.11285 34.1953C1.9566 34.1693 1.81337 34.2018 1.68316 34.293C1.55295 34.3841 1.46181 34.5078 1.40972 34.6641L0.862847 38.1016C0.810764 38.3359 0.817274 38.5768 0.882378 38.8242C0.947483 39.0716 1.05816 39.2995 1.21441 39.5078C1.3967 39.7161 1.60503 39.8724 1.83941 39.9766C2.07378 40.0807 2.32118 40.1328 2.5816 40.1328H34.5347C34.7951 40.1328 35.0425 40.0807 35.2769 39.9766C35.5113 39.8724 35.7196 39.7161 35.9019 39.5078C36.0582 39.2995 36.1688 39.0716 36.2339 38.8242C36.299 38.5768 36.3056 38.3359 36.2535 38.1016ZM26.3316 12.0078C26.4878 11.9818 26.6181 11.9622 26.7222 11.9492C26.8264 11.9362 26.8785 11.9297 26.8785 11.9297C26.9306 11.9297 26.9826 11.9232 27.0347 11.9102C27.0868 11.8971 27.1389 11.8776 27.191 11.8516C27.191 11.9036 27.1975 11.9427 27.2105 11.9688C27.2235 11.9948 27.23 12.0339 27.23 12.0859V12.9844C27.23 13.1406 27.1714 13.2708 27.0543 13.375C26.9371 13.4792 26.8003 13.5312 26.6441 13.5312H26.3316V12.0078ZM10.7847 13.5312H10.4722C10.316 13.5312 10.1793 13.4792 10.0621 13.375C9.94488 13.2708 9.88628 13.1406 9.88628 12.9844V12.0859C9.88628 12.0339 9.89279 11.9948 9.90582 11.9688C9.91884 11.9427 9.92535 11.9036 9.92535 11.8516C9.97743 11.8776 10.0295 11.8971 10.0816 11.9102C10.1337 11.9232 10.1858 11.9297 10.2378 11.9297C10.2378 11.9297 10.2899 11.9362 10.3941 11.9492C10.4983 11.9622 10.6285 11.9818 10.7847 12.0078V13.5312ZM11.9566 14.1953V12.6328C12.0608 12.6589 12.1584 12.6719 12.2496 12.6719C12.3407 12.6719 12.4253 12.6589 12.5035 12.6328C12.6597 12.5547 12.7834 12.4505 12.8746 12.3203C12.9657 12.1901 13.0113 12.0339 13.0113 11.8516V6.46094C13.0113 6.12239 13.1285 5.83594 13.3628 5.60156C13.5972 5.36719 13.8837 5.25 14.2222 5.25H15.8238C15.98 5.25 16.1233 5.27604 16.2535 5.32812C16.3837 5.38021 16.5009 5.45833 16.605 5.5625L16.8003 5.67969C17.0347 5.88802 17.3082 6.04427 17.6207 6.14844C17.9332 6.25261 18.2457 6.30469 18.5582 6.30469C18.8707 6.30469 19.1832 6.25261 19.4957 6.14844C19.8082 6.04427 20.0816 5.88802 20.316 5.67969L20.5113 5.5625C20.6155 5.45833 20.7326 5.38021 20.8628 5.32812C20.9931 5.27604 21.1363 5.25 21.2925 5.25H22.8941C23.2326 5.25 23.5191 5.36719 23.7535 5.60156C23.9878 5.83594 24.105 6.12239 24.105 6.46094V11.8516C24.105 12.0339 24.1506 12.1901 24.2418 12.3203C24.3329 12.4505 24.4566 12.5547 24.6128 12.6328C24.6649 12.6589 24.717 12.6719 24.7691 12.6719C24.8212 12.6719 24.8733 12.6719 24.9253 12.6719C24.9514 12.6719 24.9839 12.6719 25.023 12.6719C25.0621 12.6719 25.1076 12.6589 25.1597 12.6328V14.1953C25.1597 14.612 25.0165 15.1914 24.73 15.9336C24.4436 16.6758 24.0269 17.3984 23.48 18.1016C23.2977 18.3359 23.0894 18.5703 22.855 18.8047C22.6207 19.0391 22.3602 19.2734 22.0738 19.5078C22.0477 19.5078 22.0347 19.5078 22.0347 19.5078C22.0347 19.5078 22.0217 19.5208 21.9957 19.5469C21.553 19.8594 21.0451 20.1263 20.4722 20.3477C19.8993 20.569 19.2613 20.6797 18.5582 20.6797C17.855 20.6797 17.217 20.569 16.6441 20.3477C16.0712 20.1263 15.5634 19.8594 15.1207 19.5469C15.0946 19.5208 15.0816 19.5078 15.0816 19.5078C15.0816 19.5078 15.0686 19.5078 15.0425 19.5078C14.7561 19.2734 14.4957 19.0391 14.2613 18.8047C14.0269 18.5703 13.8186 18.3359 13.6363 18.1016C13.0894 17.3984 12.6727 16.6758 12.3863 15.9336C12.0998 15.1914 11.9566 14.612 11.9566 14.1953ZM22.3863 23.6484L18.5582 26.5391L14.73 23.6484C14.9123 23.4141 15.0556 23.1471 15.1597 22.8477C15.2639 22.5482 15.316 22.2682 15.316 22.0078V21.0703C15.7587 21.3047 16.2535 21.4935 16.8003 21.6367C17.3472 21.7799 17.9332 21.8516 18.5582 21.8516C19.1832 21.8516 19.7691 21.7799 20.316 21.6367C20.8628 21.4935 21.3576 21.3047 21.8003 21.0703V22.0078C21.8003 22.2682 21.8524 22.5482 21.9566 22.8477C22.0608 23.1471 22.204 23.4141 22.3863 23.6484ZM13.7535 22.9844C13.5972 22.9323 13.4345 22.8997 13.2652 22.8867C13.0959 22.8737 12.9201 22.8932 12.7378 22.9453C12.7378 22.9453 12.7248 22.9453 12.6988 22.9453L10.7066 23.5703C10.8628 22.737 11.2535 22.0143 11.8785 21.4023C12.5035 20.7904 13.2587 20.4193 14.1441 20.2891V22.0078C14.1441 22.1901 14.105 22.3659 14.0269 22.5352C13.9488 22.7044 13.8576 22.8542 13.7535 22.9844ZM15.316 27.7109C15.316 27.6589 15.3095 27.6133 15.2964 27.5742C15.2834 27.5352 15.2639 27.5026 15.2378 27.4766C15.2378 27.4766 15.2378 27.4701 15.2378 27.457C15.2378 27.444 15.2378 27.4375 15.2378 27.4375C15.2118 27.3854 15.1923 27.3464 15.1793 27.3203C15.1662 27.2943 15.1597 27.2552 15.1597 27.2031C15.1337 27.2031 15.1207 27.2031 15.1207 27.2031C15.0946 27.099 15.0621 26.9948 15.023 26.8906C14.9839 26.7865 14.9384 26.6823 14.8863 26.5781C14.8863 26.5781 14.8863 26.5716 14.8863 26.5586C14.8863 26.5456 14.8863 26.5391 14.8863 26.5391C14.8602 26.513 14.8407 26.487 14.8277 26.4609C14.8147 26.4349 14.8082 26.3958 14.8082 26.3438C14.8082 26.3438 14.8016 26.3372 14.7886 26.3242C14.7756 26.3112 14.7691 26.3047 14.7691 26.3047C14.7691 26.2786 14.7626 26.2526 14.7496 26.2266C14.7365 26.2005 14.717 26.1745 14.691 26.1484C14.691 26.1484 14.691 26.1419 14.691 26.1289C14.691 26.1159 14.691 26.1094 14.691 26.1094C14.6649 26.0573 14.6454 26.0052 14.6324 25.9531C14.6194 25.901 14.5998 25.849 14.5738 25.7969C14.5738 25.7969 14.5673 25.7904 14.5543 25.7773C14.5412 25.7643 14.5347 25.7578 14.5347 25.7578C14.5347 25.7318 14.5282 25.7122 14.5152 25.6992C14.5022 25.6862 14.4957 25.6667 14.4957 25.6406C14.4957 25.6146 14.4891 25.5951 14.4761 25.582C14.4631 25.569 14.4566 25.5495 14.4566 25.5234C14.4566 25.5234 14.4566 25.5169 14.4566 25.5039C14.4566 25.4909 14.4566 25.4844 14.4566 25.4844C14.4306 25.4844 14.4175 25.4779 14.4175 25.4648C14.4175 25.4518 14.4175 25.4453 14.4175 25.4453C14.3915 25.3672 14.3589 25.2891 14.3199 25.2109C14.2808 25.1328 14.2483 25.0547 14.2222 24.9766C14.2222 24.9505 14.2092 24.918 14.1832 24.8789C14.1571 24.8398 14.1441 24.7943 14.1441 24.7422C14.1441 24.7422 14.1376 24.7292 14.1246 24.7031C14.1115 24.6771 14.105 24.6641 14.105 24.6641L17.3863 27.125L16.0191 27.7109L15.4332 27.9453C15.4071 27.8932 15.3876 27.8477 15.3746 27.8086C15.3615 27.7695 15.342 27.737 15.316 27.7109ZM16.7222 31.3047C16.6701 31.1484 16.6181 30.9922 16.566 30.8359C16.5139 30.6797 16.4488 30.5234 16.3707 30.3672C16.2925 30.1328 16.2079 29.9049 16.1168 29.6836C16.0256 29.4622 15.941 29.2474 15.8628 29.0391L16.0582 28.9609L16.9566 29.9766L16.7222 31.3047ZM18.5582 36.0312C18.5582 36.0312 18.5516 36.0247 18.5386 36.0117C18.5256 35.9987 18.5191 35.9792 18.5191 35.9531C18.3889 35.6146 18.2391 35.224 18.0699 34.7812C17.9006 34.3385 17.7248 33.8698 17.5425 33.375L18.0894 30.4062H19.0269L19.5738 33.375C19.3915 33.8958 19.2092 34.3841 19.0269 34.8398C18.8446 35.2956 18.6884 35.6927 18.5582 36.0312ZM19.2613 29.2344H17.855L17.191 28.4531L18.5582 27.9062L19.9253 28.4531L19.2613 29.2344ZM20.7457 30.3672C20.6675 30.5234 20.6024 30.6797 20.5503 30.8359C20.4983 30.9922 20.4462 31.1484 20.3941 31.3047L20.1597 29.9766L21.0582 28.9609L21.2535 29.0391C21.1753 29.2474 21.0907 29.4622 20.9996 29.6836C20.9084 29.9049 20.8238 30.1328 20.7457 30.3672ZM22.9722 24.7422C22.9722 24.7943 22.9592 24.8333 22.9332 24.8594C22.9071 24.8854 22.8941 24.9245 22.8941 24.9766C22.8941 24.9766 22.8941 24.9896 22.8941 25.0156C22.8681 25.0417 22.8485 25.0742 22.8355 25.1133C22.8225 25.1523 22.803 25.1849 22.7769 25.2109C22.7769 25.2109 22.7769 25.2174 22.7769 25.2305C22.7769 25.2435 22.7769 25.25 22.7769 25.25C22.7509 25.276 22.7313 25.3086 22.7183 25.3477C22.7053 25.3867 22.6988 25.4193 22.6988 25.4453C22.6988 25.4453 22.6988 25.4518 22.6988 25.4648C22.6988 25.4779 22.6858 25.4844 22.6597 25.4844C22.6597 25.4844 22.6597 25.4909 22.6597 25.5039C22.6597 25.5169 22.6597 25.5234 22.6597 25.5234C22.6597 25.5495 22.6532 25.569 22.6402 25.582C22.6272 25.5951 22.6207 25.6146 22.6207 25.6406C22.6207 25.6406 22.6142 25.6536 22.6011 25.6797C22.5881 25.7057 22.5816 25.7318 22.5816 25.7578C22.5816 25.7578 22.5751 25.7578 22.5621 25.7578C22.549 25.7578 22.5425 25.7708 22.5425 25.7969C22.5165 25.849 22.497 25.901 22.4839 25.9531C22.4709 26.0052 22.4514 26.0573 22.4253 26.1094C22.4253 26.1094 22.4253 26.1224 22.4253 26.1484C22.3993 26.1745 22.3798 26.2005 22.3668 26.2266C22.3537 26.2526 22.3472 26.2786 22.3472 26.3047C22.3472 26.3047 22.3407 26.3112 22.3277 26.3242C22.3147 26.3372 22.3082 26.3568 22.3082 26.3828C22.3082 26.4089 22.3017 26.4349 22.2886 26.4609C22.2756 26.487 22.2691 26.513 22.2691 26.5391C22.2431 26.5391 22.23 26.5456 22.23 26.5586C22.23 26.5716 22.23 26.5781 22.23 26.5781C22.178 26.6823 22.1324 26.7865 22.0933 26.8906C22.0543 26.9948 22.0217 27.099 21.9957 27.2031C21.9957 27.2031 21.9826 27.2031 21.9566 27.2031C21.9566 27.2552 21.9501 27.2943 21.9371 27.3203C21.924 27.3464 21.9045 27.3854 21.8785 27.4375C21.8785 27.4375 21.8785 27.444 21.8785 27.457C21.8785 27.4701 21.8785 27.4766 21.8785 27.4766C21.8524 27.5026 21.8329 27.5352 21.8199 27.5742C21.8069 27.6133 21.8003 27.6589 21.8003 27.7109C21.7743 27.737 21.7548 27.7695 21.7418 27.8086C21.7287 27.8477 21.7092 27.8932 21.6832 27.9453L21.0972 27.7109L19.73 27.125L23.0113 24.6641C23.0113 24.6641 23.0048 24.6771 22.9918 24.7031C22.9787 24.7292 22.9722 24.7422 22.9722 24.7422ZM24.4175 22.9453C24.2352 22.8932 24.0595 22.8737 23.8902 22.8867C23.7209 22.8997 23.5451 22.9323 23.3628 22.9844C23.2587 22.8542 23.1675 22.7044 23.0894 22.5352C23.0113 22.3659 22.9722 22.1901 22.9722 22.0078V20.2891C23.8576 20.4193 24.6128 20.7839 25.2378 21.3828C25.8628 21.9818 26.2535 22.7109 26.4097 23.5703L24.4175 22.9453ZM28.9488 31.2656C28.9488 31.7604 28.7665 32.1901 28.4019 32.5547C28.0373 32.9193 27.5946 33.1016 27.0738 33.1016C26.579 33.1016 26.1493 32.9193 25.7847 32.5547C25.4201 32.1901 25.2378 31.7604 25.2378 31.2656C25.2378 30.7448 25.4201 30.3021 25.7847 29.9375C26.1493 29.5729 26.579 29.3906 27.0738 29.3906C27.5946 29.3906 28.0373 29.5729 28.4019 29.9375C28.7665 30.3021 28.9488 30.7448 28.9488 31.2656Z" fill="white"/>
</g>
<defs>
<clipPath id="clip0_1402_768">
<rect width="40" height="40" fill="white" transform="matrix(1 0 0 -1 0.828125 40.1328)"/>
</clipPath>
</defs>
</svg>
